<svg xmlns="http://www.w3.org/2000/svg" width="31" height="29" viewBox="0 0 31 29">
  <g id="Designed_for_Developers_-_Express_Editor_icon" data-name="Designed for Developers - Express Editor icon" transform="translate(-0.453 -2.143)">
    <rect id="Rectangle_151586" data-name="Rectangle 151586" width="26.09" height="21.347" rx="2" transform="translate(4.321 6.729)" fill="none" stroke="#5c5ce0" stroke-width="2"/>
    <rect id="Canvas" width="31" height="29" transform="translate(0.453 2.143)" fill="#ff13dc" opacity="0"/>
    <rect id="Rectangle_151548" data-name="Rectangle 151548" width="2" height="2" rx="0.5" transform="translate(6.453 12.143)" fill="#5c5ce0"/>
    <rect id="Rectangle_151588" data-name="Rectangle 151588" width="1" height="20" rx="0.5" transform="translate(9.453 8.143)" fill="#5c5ce0"/>
    <rect id="Rectangle_151583" data-name="Rectangle 151583" width="2" height="2" rx="0.5" transform="translate(6.453 15.143)" fill="#5c5ce0"/>
    <rect id="Rectangle_151584" data-name="Rectangle 151584" width="2" height="2" rx="0.5" transform="translate(6.453 18.143)" fill="#5c5ce0"/>
    <rect id="Rectangle_151585" data-name="Rectangle 151585" width="2" height="2" rx="0.5" transform="translate(6.453 21.143)" fill="#5c5ce0"/>
    <rect id="Rectangle_151551" data-name="Rectangle 151551" width="26" transform="translate(3.453 10.143)" fill="#5c5ce0"/>
    <rect id="Rectangle_151587" data-name="Rectangle 151587" width="26" height="2" rx="1" transform="translate(4.453 7.143)" fill="#5c5ce0"/>
    <circle id="Ellipse_24863" data-name="Ellipse 24863" cx="1.5" cy="1.5" r="1.5" transform="translate(21.453 15.143)" fill="#5c5ce0"/>
    <path id="Path_129343" data-name="Path 129343" d="M16.757,8.5a3.509,3.509,0,0,0-3.5-3.5H5.5A3.509,3.509,0,0,0,2,8.5V14.04a3.509,3.509,0,0,0,3.5,3.5h7.748a3.51,3.51,0,0,0,3.351-2.48.545.545,0,0,0,.074-.3,3.5,3.5,0,0,0,.08-.73ZM5.5,6.107h7.748a2.4,2.4,0,0,1,2.4,2.4V13.6l-1.717-1.6a1.291,1.291,0,0,0-1.748-.013L10.657,13.43a.184.184,0,0,1-.135.051.216.216,0,0,1-.153-.085L7.1,10.156a1.3,1.3,0,0,0-1.744-.037l-2.252,2.1V8.5a2.4,2.4,0,0,1,2.4-2.4Zm7.748,10.33H5.5a2.4,2.4,0,0,1-2.4-2.4v-.306l2.984-2.786a.184.184,0,0,1,.239,0l3.236,3.21a1.291,1.291,0,0,0,1.852.076L12.93,12.8a.184.184,0,0,1,.248,0l2.294,2.14A2.4,2.4,0,0,1,13.252,16.437Z" transform="translate(10.987 7.391)" fill="#5c5ce0"/>
  </g>
</svg>
